<mxfile host="app.diagrams.net" modified="2022-04-25T09:08:00.206Z" agent="5.0 (Windows NT 10.0; Win64; x64) AppleWebKit/537.36 (KHTML, like Gecko) Chrome/83.0.4103.97 Safari/537.36" etag="-UpDeXSIXuEVas8geJCH" version="16.6.1" type="github" pages="2">
  <diagram name="Page-1" id="13e1069c-82ec-6db2-03f1-153e76fe0fe0">
    <mxGraphModel dx="2890" dy="876" grid="1" gridSize="10" guides="1" tooltips="1" connect="1" arrows="1" fold="1" page="1" pageScale="1" pageWidth="1100" pageHeight="850" background="none" math="0" shadow="0">
      <root>
        <mxCell id="0" />
        <mxCell id="1" parent="0" />
        <mxCell id="7baba1c4bc27f4b0-2" value="server" style="shape=umlLifeline;perimeter=lifelinePerimeter;whiteSpace=wrap;html=1;container=1;collapsible=0;recursiveResize=0;outlineConnect=0;rounded=1;shadow=0;comic=0;labelBackgroundColor=none;strokeWidth=1;fontFamily=Verdana;fontSize=12;align=center;" parent="1" vertex="1">
          <mxGeometry x="240" y="80" width="100" height="580" as="geometry" />
        </mxCell>
        <mxCell id="7baba1c4bc27f4b0-10" value="" style="html=1;points=[];perimeter=orthogonalPerimeter;rounded=0;shadow=0;comic=0;labelBackgroundColor=none;strokeWidth=1;fontFamily=Verdana;fontSize=12;align=center;" parent="7baba1c4bc27f4b0-2" vertex="1">
          <mxGeometry x="45" y="100" width="10" height="230" as="geometry" />
        </mxCell>
        <mxCell id="7baba1c4bc27f4b0-34" value="" style="html=1;points=[];perimeter=orthogonalPerimeter;rounded=0;shadow=0;comic=0;labelBackgroundColor=none;strokeWidth=1;fontFamily=Verdana;fontSize=12;align=center;" parent="7baba1c4bc27f4b0-2" vertex="1">
          <mxGeometry x="50" y="215" width="10" height="85" as="geometry" />
        </mxCell>
        <mxCell id="7baba1c4bc27f4b0-21" value="return" style="html=1;verticalAlign=bottom;endArrow=open;dashed=1;endSize=8;labelBackgroundColor=none;fontFamily=Verdana;fontSize=12;edgeStyle=elbowEdgeStyle;elbow=vertical;" parent="7baba1c4bc27f4b0-2" target="f4Wq_F3CazVlj-oZ5k1Y-4" edge="1">
          <mxGeometry relative="1" as="geometry">
            <mxPoint x="-90" y="160" as="targetPoint" />
            <Array as="points">
              <mxPoint x="-15" y="160" />
              <mxPoint x="15" y="160" />
            </Array>
            <mxPoint x="40" y="160" as="sourcePoint" />
          </mxGeometry>
        </mxCell>
        <mxCell id="7baba1c4bc27f4b0-3" value="db" style="shape=umlLifeline;perimeter=lifelinePerimeter;whiteSpace=wrap;html=1;container=1;collapsible=0;recursiveResize=0;outlineConnect=0;rounded=1;shadow=0;comic=0;labelBackgroundColor=none;strokeWidth=1;fontFamily=Verdana;fontSize=12;align=center;" parent="1" vertex="1">
          <mxGeometry x="400" y="80" width="100" height="580" as="geometry" />
        </mxCell>
        <mxCell id="7baba1c4bc27f4b0-13" value="" style="html=1;points=[];perimeter=orthogonalPerimeter;rounded=0;shadow=0;comic=0;labelBackgroundColor=none;strokeWidth=1;fontFamily=Verdana;fontSize=12;align=center;" parent="7baba1c4bc27f4b0-3" vertex="1">
          <mxGeometry x="45" y="120" width="10" height="30" as="geometry" />
        </mxCell>
        <mxCell id="7baba1c4bc27f4b0-4" value="ovs-agent" style="shape=umlLifeline;perimeter=lifelinePerimeter;whiteSpace=wrap;html=1;container=1;collapsible=0;recursiveResize=0;outlineConnect=0;rounded=1;shadow=0;comic=0;labelBackgroundColor=none;strokeWidth=1;fontFamily=Verdana;fontSize=12;align=center;" parent="1" vertex="1">
          <mxGeometry x="540" y="80" width="100" height="580" as="geometry" />
        </mxCell>
        <mxCell id="f4Wq_F3CazVlj-oZ5k1Y-10" value="update_device_list" style="html=1;verticalAlign=bottom;endArrow=block;labelBackgroundColor=none;fontFamily=Verdana;fontSize=12;edgeStyle=elbowEdgeStyle;elbow=vertical;" edge="1" parent="7baba1c4bc27f4b0-4" target="7baba1c4bc27f4b0-2">
          <mxGeometry relative="1" as="geometry">
            <mxPoint x="45" y="214.5" as="sourcePoint" />
            <mxPoint x="-85" y="214.5" as="targetPoint" />
          </mxGeometry>
        </mxCell>
        <mxCell id="7baba1c4bc27f4b0-5" value="l3-agent(dvr)" style="shape=umlLifeline;perimeter=lifelinePerimeter;whiteSpace=wrap;html=1;container=1;collapsible=0;recursiveResize=0;outlineConnect=0;rounded=1;shadow=0;comic=0;labelBackgroundColor=none;strokeWidth=1;fontFamily=Verdana;fontSize=12;align=center;" parent="1" vertex="1">
          <mxGeometry x="680" y="80" width="100" height="580" as="geometry" />
        </mxCell>
        <mxCell id="7baba1c4bc27f4b0-16" value="" style="html=1;points=[];perimeter=orthogonalPerimeter;rounded=0;shadow=0;comic=0;labelBackgroundColor=none;strokeWidth=1;fontFamily=Verdana;fontSize=12;align=center;" parent="1" vertex="1">
          <mxGeometry x="585" y="250" width="10" height="150" as="geometry" />
        </mxCell>
        <mxCell id="7baba1c4bc27f4b0-19" value="" style="html=1;points=[];perimeter=orthogonalPerimeter;rounded=0;shadow=0;comic=0;labelBackgroundColor=none;strokeWidth=1;fontFamily=Verdana;fontSize=12;align=center;" parent="1" vertex="1">
          <mxGeometry x="725" y="210" width="10" height="60" as="geometry" />
        </mxCell>
        <mxCell id="7baba1c4bc27f4b0-20" value="qr-port create" style="html=1;verticalAlign=bottom;endArrow=block;labelBackgroundColor=none;fontFamily=Verdana;fontSize=12;edgeStyle=elbowEdgeStyle;elbow=vertical;" parent="1" source="7baba1c4bc27f4b0-19" target="7baba1c4bc27f4b0-16" edge="1">
          <mxGeometry relative="1" as="geometry">
            <mxPoint x="650" y="230" as="sourcePoint" />
          </mxGeometry>
        </mxCell>
        <mxCell id="7baba1c4bc27f4b0-23" value="add_fdb_entries" style="html=1;verticalAlign=bottom;endArrow=block;entryX=1.06;entryY=0.945;labelBackgroundColor=none;fontFamily=Verdana;fontSize=12;entryDx=0;entryDy=0;entryPerimeter=0;" parent="1" edge="1">
          <mxGeometry relative="1" as="geometry">
            <mxPoint x="295" y="364.75" as="sourcePoint" />
            <mxPoint x="595.5999999999999" y="364.75" as="targetPoint" />
          </mxGeometry>
        </mxCell>
        <mxCell id="7baba1c4bc27f4b0-30" value="return" style="html=1;verticalAlign=bottom;endArrow=open;dashed=1;endSize=8;labelBackgroundColor=none;fontFamily=Verdana;fontSize=12;edgeStyle=elbowEdgeStyle;elbow=vertical;" parent="1" edge="1">
          <mxGeometry x="0.4574" relative="1" as="geometry">
            <mxPoint x="45" y="482" as="targetPoint" />
            <Array as="points">
              <mxPoint x="190" y="482" />
            </Array>
            <mxPoint x="290" y="482" as="sourcePoint" />
            <mxPoint as="offset" />
          </mxGeometry>
        </mxCell>
        <mxCell id="7baba1c4bc27f4b0-14" value="&lt;ul class=&quot;nettran&quot; style=&quot;box-sizing: border-box ; margin: 0px ; padding: 0px ; color: rgb(46 , 48 , 51) ; font-family: &amp;#34;arial&amp;#34; , &amp;#34;microsoft yahei&amp;#34; , , , &amp;#34;malgun gothic&amp;#34; , &amp;#34;meiryo&amp;#34; , sans-serif ; font-size: 12.8px ; line-height: 10.4px ; background-color: rgb(255 , 255 , 255)&quot;&gt;&lt;li style=&quot;box-sizing: border-box ; margin: 0px 0px 5px ; padding: 0px 4px ; list-style: none ; display: inline-block ; border-left-width: 1px ; border-left-style: solid ; border-left-color: rgb(43 , 43 , 43)&quot;&gt;schedule&lt;/li&gt;&lt;/ul&gt;" style="html=1;verticalAlign=bottom;endArrow=block;labelBackgroundColor=none;fontFamily=Verdana;fontSize=12;edgeStyle=elbowEdgeStyle;elbow=vertical;" parent="1" source="7baba1c4bc27f4b0-10" edge="1">
          <mxGeometry relative="1" as="geometry">
            <mxPoint x="370" y="200" as="sourcePoint" />
            <mxPoint x="450" y="201" as="targetPoint" />
          </mxGeometry>
        </mxCell>
        <mxCell id="7baba1c4bc27f4b0-40" value="Note" style="shape=note;whiteSpace=wrap;html=1;size=14;verticalAlign=top;align=left;spacingTop=-6;rounded=0;shadow=0;comic=0;labelBackgroundColor=none;strokeWidth=1;fontFamily=Verdana;fontSize=12" parent="1" vertex="1">
          <mxGeometry x="-10" y="30" width="100" height="35" as="geometry" />
        </mxCell>
        <mxCell id="7baba1c4bc27f4b0-41" value="Note" style="shape=note;whiteSpace=wrap;html=1;size=14;verticalAlign=top;align=left;spacingTop=-6;rounded=0;shadow=0;comic=0;labelBackgroundColor=none;strokeWidth=1;fontFamily=Verdana;fontSize=12" parent="1" vertex="1">
          <mxGeometry x="240" y="30" width="100" height="35" as="geometry" />
        </mxCell>
        <mxCell id="7baba1c4bc27f4b0-42" value="Note" style="shape=note;whiteSpace=wrap;html=1;size=14;verticalAlign=top;align=left;spacingTop=-6;rounded=0;shadow=0;comic=0;labelBackgroundColor=none;strokeWidth=1;fontFamily=Verdana;fontSize=12" parent="1" vertex="1">
          <mxGeometry x="400" y="30" width="100" height="35" as="geometry" />
        </mxCell>
        <mxCell id="7baba1c4bc27f4b0-43" value="Note" style="shape=note;whiteSpace=wrap;html=1;size=14;verticalAlign=top;align=left;spacingTop=-6;rounded=0;shadow=0;comic=0;labelBackgroundColor=none;strokeWidth=1;fontFamily=Verdana;fontSize=12" parent="1" vertex="1">
          <mxGeometry x="540" y="30" width="100" height="35" as="geometry" />
        </mxCell>
        <mxCell id="7baba1c4bc27f4b0-44" value="Note" style="shape=note;whiteSpace=wrap;html=1;size=14;verticalAlign=top;align=left;spacingTop=-6;rounded=0;shadow=0;comic=0;labelBackgroundColor=none;strokeWidth=1;fontFamily=Verdana;fontSize=12" parent="1" vertex="1">
          <mxGeometry x="680" y="30" width="100" height="35" as="geometry" />
        </mxCell>
        <mxCell id="f4Wq_F3CazVlj-oZ5k1Y-3" value="" style="shape=umlLifeline;participant=umlActor;perimeter=lifelinePerimeter;whiteSpace=wrap;html=1;container=1;collapsible=0;recursiveResize=0;verticalAlign=top;spacingTop=36;outlineConnect=0;" vertex="1" parent="1">
          <mxGeometry x="30" y="80" width="20" height="580" as="geometry" />
        </mxCell>
        <mxCell id="f4Wq_F3CazVlj-oZ5k1Y-4" value="" style="html=1;points=[];perimeter=orthogonalPerimeter;" vertex="1" parent="f4Wq_F3CazVlj-oZ5k1Y-3">
          <mxGeometry x="5" y="120" width="10" height="80" as="geometry" />
        </mxCell>
        <mxCell id="f4Wq_F3CazVlj-oZ5k1Y-6" value="" style="html=1;points=[];perimeter=orthogonalPerimeter;" vertex="1" parent="f4Wq_F3CazVlj-oZ5k1Y-3">
          <mxGeometry x="5" y="359" width="10" height="80" as="geometry" />
        </mxCell>
        <mxCell id="f4Wq_F3CazVlj-oZ5k1Y-8" value="router --enable" style="html=1;verticalAlign=bottom;endArrow=block;rounded=0;" edge="1" parent="f4Wq_F3CazVlj-oZ5k1Y-3" target="7baba1c4bc27f4b0-10">
          <mxGeometry width="80" relative="1" as="geometry">
            <mxPoint x="16" y="121" as="sourcePoint" />
            <mxPoint x="250.4000000000001" y="120.71000000000004" as="targetPoint" />
          </mxGeometry>
        </mxCell>
        <mxCell id="f4Wq_F3CazVlj-oZ5k1Y-9" value="router create" style="html=1;verticalAlign=bottom;endArrow=block;labelBackgroundColor=none;fontFamily=Verdana;fontSize=12;edgeStyle=elbowEdgeStyle;elbow=vertical;exitX=0.9;exitY=0.18;exitDx=0;exitDy=0;exitPerimeter=0;" edge="1" parent="1">
          <mxGeometry relative="1" as="geometry">
            <mxPoint x="294" y="235.4000000000001" as="sourcePoint" />
            <mxPoint x="729.5" y="235" as="targetPoint" />
          </mxGeometry>
        </mxCell>
        <mxCell id="wyxuPFRudOdrwrFCGt7A-4" value="&lt;span style=&quot;font-family: &amp;#34;helvetica&amp;#34; ; text-align: left&quot;&gt;update_device_up&lt;/span&gt;" style="html=1;verticalAlign=bottom;endArrow=block;labelBackgroundColor=none;fontFamily=Verdana;fontSize=12;elbow=vertical;edgeStyle=orthogonalEdgeStyle;curved=1;exitX=1.066;exitY=0.713;exitPerimeter=0;" edge="1" parent="1">
          <mxGeometry relative="1" as="geometry">
            <mxPoint x="297.65999999999985" y="315.4600000000001" as="sourcePoint" />
            <mxPoint x="292" y="354.55" as="targetPoint" />
            <Array as="points">
              <mxPoint x="347" y="315.55" />
              <mxPoint x="347" y="354.55" />
            </Array>
          </mxGeometry>
        </mxCell>
        <mxCell id="wyxuPFRudOdrwrFCGt7A-6" value="router --disable" style="html=1;verticalAlign=bottom;endArrow=block;rounded=0;" edge="1" parent="1">
          <mxGeometry width="80" relative="1" as="geometry">
            <mxPoint x="45" y="444" as="sourcePoint" />
            <mxPoint x="284" y="444" as="targetPoint" />
          </mxGeometry>
        </mxCell>
      </root>
    </mxGraphModel>
  </diagram>
  <diagram id="hrnhezWi1rzi-BcBaC11" name="Page-2">
    <mxGraphModel dx="1790" dy="876" grid="1" gridSize="10" guides="1" tooltips="1" connect="1" arrows="1" fold="1" page="1" pageScale="1" pageWidth="827" pageHeight="1169" math="0" shadow="0">
      <root>
        <mxCell id="0A-2EMo71As4N8A5hutU-0" />
        <mxCell id="0A-2EMo71As4N8A5hutU-1" parent="0A-2EMo71As4N8A5hutU-0" />
        <mxCell id="9kDTwUN8by6skrpwrqqP-0" value="Text" style="text;html=1;strokeColor=none;fillColor=none;align=center;verticalAlign=middle;whiteSpace=wrap;rounded=0;" vertex="1" parent="0A-2EMo71As4N8A5hutU-1">
          <mxGeometry x="380" y="1030" width="60" height="30" as="geometry" />
        </mxCell>
        <mxCell id="9kDTwUN8by6skrpwrqqP-3" value="" style="edgeStyle=orthogonalEdgeStyle;rounded=0;orthogonalLoop=1;jettySize=auto;html=1;" edge="1" parent="0A-2EMo71As4N8A5hutU-1" source="9kDTwUN8by6skrpwrqqP-1" target="9kDTwUN8by6skrpwrqqP-2">
          <mxGeometry relative="1" as="geometry" />
        </mxCell>
        <mxCell id="9kDTwUN8by6skrpwrqqP-1" value="" style="rounded=1;whiteSpace=wrap;html=1;" vertex="1" parent="0A-2EMo71As4N8A5hutU-1">
          <mxGeometry x="350" y="1020" width="120" height="60" as="geometry" />
        </mxCell>
        <mxCell id="9kDTwUN8by6skrpwrqqP-2" value="" style="rounded=1;whiteSpace=wrap;html=1;fillColor=rgb(255, 255, 255);strokeColor=rgb(0, 0, 0);fontColor=rgb(0, 0, 0);" vertex="1" parent="0A-2EMo71As4N8A5hutU-1">
          <mxGeometry x="550" y="1020" width="120" height="60" as="geometry" />
        </mxCell>
      </root>
    </mxGraphModel>
  </diagram>
</mxfile>
